<svg width="24" height="25" viewBox="0 0 24 25" fill="none" xmlns="http://www.w3.org/2000/svg">
<mask id="mask0_564_1977" style="mask-type:alpha" maskUnits="userSpaceOnUse" x="0" y="0" width="24" height="25">
<rect y="0.5" width="24" height="24" fill="#D9D9D9"/>
</mask>
<g mask="url(#mask0_564_1977)">
<path d="M6.75 22.5008C6 22.5008 5.35417 22.2466 4.8125 21.7383C4.27083 21.2299 4 20.6008 4 19.8508V5.90078C4 5.26745 4.19583 4.70078 4.5875 4.20078C4.97917 3.70078 5.49167 3.38411 6.125 3.25078L16 1.30078V17.3008L6.525 19.2008C6.375 19.2341 6.25 19.3133 6.15 19.4383C6.05 19.5633 6 19.7008 6 19.8508C6 20.0341 6.075 20.1883 6.225 20.3133C6.375 20.4383 6.55 20.5008 6.75 20.5008H18V4.50078H20V22.5008H6.75ZM9 16.6758L14 15.7008V3.75078L9 4.72578V16.6758ZM7 17.0758V5.12578L6.625 5.20078C6.44167 5.23411 6.29167 5.31328 6.175 5.43828C6.05833 5.56328 6 5.71745 6 5.90078V17.3258C6.08333 17.2924 6.17083 17.2633 6.2625 17.2383C6.35417 17.2133 6.44167 17.1924 6.525 17.1758L7 17.0758Z" fill="#1C1B1F"/>
</g>
</svg>
