<svg width="24" height="25" viewBox="0 0 24 25" fill="none" xmlns="http://www.w3.org/2000/svg">
<mask id="mask0_564_2007" style="mask-type:alpha" maskUnits="userSpaceOnUse" x="0" y="0" width="24" height="25">
<rect y="0.5" width="24" height="24" fill="#D9D9D9"/>
</mask>
<g mask="url(#mask0_564_2007)">
<path d="M1 20.5V16.5C1 15.9333 1.19583 15.4583 1.5875 15.075C1.97917 14.6917 2.45 14.5 3 14.5H6.275C6.60833 14.5 6.925 14.5833 7.225 14.75C7.525 14.9167 7.76667 15.1417 7.95 15.425C8.43333 16.075 9.02917 16.5833 9.7375 16.95C10.4458 17.3167 11.2 17.5 12 17.5C12.8167 17.5 13.5792 17.3167 14.2875 16.95C14.9958 16.5833 15.5833 16.075 16.05 15.425C16.2667 15.1417 16.5208 14.9167 16.8125 14.75C17.1042 14.5833 17.4083 14.5 17.725 14.5H21C21.5667 14.5 22.0417 14.6917 22.425 15.075C22.8083 15.4583 23 15.9333 23 16.5V20.5H16V18.225C15.4167 18.6417 14.7875 18.9583 14.1125 19.175C13.4375 19.3917 12.7333 19.5 12 19.5C11.2833 19.5 10.5833 19.3875 9.9 19.1625C9.21667 18.9375 8.58333 18.6167 8 18.2V20.5H1ZM12 16.5C11.3667 16.5 10.7667 16.3542 10.2 16.0625C9.63333 15.7708 9.15833 15.3667 8.775 14.85C8.49167 14.4333 8.1375 14.1042 7.7125 13.8625C7.2875 13.6208 6.825 13.5 6.325 13.5C6.69167 12.8833 7.46667 12.3958 8.65 12.0375C9.83333 11.6792 10.95 11.5 12 11.5C13.05 11.5 14.1667 11.6792 15.35 12.0375C16.5333 12.3958 17.3083 12.8833 17.675 13.5C17.1917 13.5 16.7333 13.6208 16.3 13.8625C15.8667 14.1042 15.5083 14.4333 15.225 14.85C14.8583 15.3833 14.3917 15.7917 13.825 16.075C13.2583 16.3583 12.65 16.5 12 16.5ZM4 13.5C3.16667 13.5 2.45833 13.2083 1.875 12.625C1.29167 12.0417 1 11.3333 1 10.5C1 9.65 1.29167 8.9375 1.875 8.3625C2.45833 7.7875 3.16667 7.5 4 7.5C4.85 7.5 5.5625 7.7875 6.1375 8.3625C6.7125 8.9375 7 9.65 7 10.5C7 11.3333 6.7125 12.0417 6.1375 12.625C5.5625 13.2083 4.85 13.5 4 13.5ZM20 13.5C19.1667 13.5 18.4583 13.2083 17.875 12.625C17.2917 12.0417 17 11.3333 17 10.5C17 9.65 17.2917 8.9375 17.875 8.3625C18.4583 7.7875 19.1667 7.5 20 7.5C20.85 7.5 21.5625 7.7875 22.1375 8.3625C22.7125 8.9375 23 9.65 23 10.5C23 11.3333 22.7125 12.0417 22.1375 12.625C21.5625 13.2083 20.85 13.5 20 13.5ZM12 10.5C11.1667 10.5 10.4583 10.2083 9.875 9.625C9.29167 9.04167 9 8.33333 9 7.5C9 6.65 9.29167 5.9375 9.875 5.3625C10.4583 4.7875 11.1667 4.5 12 4.5C12.85 4.5 13.5625 4.7875 14.1375 5.3625C14.7125 5.9375 15 6.65 15 7.5C15 8.33333 14.7125 9.04167 14.1375 9.625C13.5625 10.2083 12.85 10.5 12 10.5Z" fill="#1C1B1F"/>
</g>
</svg>
