<svg width="24" height="25" viewBox="0 0 24 25" fill="none" xmlns="http://www.w3.org/2000/svg">
<mask id="mask0_564_1997" style="mask-type:alpha" maskUnits="userSpaceOnUse" x="0" y="0" width="24" height="25">
<rect y="0.5" width="24" height="24" fill="#D9D9D9"/>
</mask>
<g mask="url(#mask0_564_1997)">
<path d="M12 12.5C11.15 12.5 10.4375 12.2125 9.8625 11.6375C9.2875 11.0625 9 10.35 9 9.5C9 8.66667 9.2875 7.95833 9.8625 7.375C10.4375 6.79167 11.15 6.5 12 6.5C12.8333 6.5 13.5417 6.79167 14.125 7.375C14.7083 7.95833 15 8.66667 15 9.5C15 10.35 14.7083 11.0625 14.125 11.6375C13.5417 12.2125 12.8333 12.5 12 12.5ZM12 10.5C12.2833 10.5 12.5208 10.4042 12.7125 10.2125C12.9042 10.0208 13 9.78333 13 9.5C13 9.21667 12.9042 8.97917 12.7125 8.7875C12.5208 8.59583 12.2833 8.5 12 8.5C11.7167 8.5 11.4792 8.59583 11.2875 8.7875C11.0958 8.97917 11 9.21667 11 9.5C11 9.78333 11.0958 10.0208 11.2875 10.2125C11.4792 10.4042 11.7167 10.5 12 10.5ZM6 18.5V16.6C6 16.25 6.0875 15.9208 6.2625 15.6125C6.4375 15.3042 6.675 15.0583 6.975 14.875C7.74167 14.425 8.54583 14.0833 9.3875 13.85C10.2292 13.6167 11.1 13.5 12 13.5C12.9 13.5 13.7708 13.6167 14.6125 13.85C15.4542 14.0833 16.2583 14.425 17.025 14.875C17.325 15.0583 17.5625 15.3042 17.7375 15.6125C17.9125 15.9208 18 16.25 18 16.6V18.5H6ZM12 15.5C11.3167 15.5 10.65 15.5833 10 15.75C9.35 15.9167 8.73333 16.1667 8.15 16.5H15.85C15.2667 16.1667 14.65 15.9167 14 15.75C13.35 15.5833 12.6833 15.5 12 15.5ZM4 22.5C3.45 22.5 2.97917 22.3042 2.5875 21.9125C2.19583 21.5208 2 21.05 2 20.5V16.5H4V20.5H8V22.5H4ZM2 8.5V4.5C2 3.95 2.19583 3.47917 2.5875 3.0875C2.97917 2.69583 3.45 2.5 4 2.5H8V4.5H4V8.5H2ZM16 22.5V20.5H20V16.5H22V20.5C22 21.05 21.8042 21.5208 21.4125 21.9125C21.0208 22.3042 20.55 22.5 20 22.5H16ZM20 8.5V4.5H16V2.5H20C20.55 2.5 21.0208 2.69583 21.4125 3.0875C21.8042 3.47917 22 3.95 22 4.5V8.5H20Z" fill="#1C1B1F"/>
</g>
</svg>
