<svg width="117" height="22" viewBox="0 0 117 22" fill="none" xmlns="http://www.w3.org/2000/svg">
<path d="M10.5 0.5L12.8574 7.75532H20.4861L14.3143 12.2394L16.6717 19.4947L10.5 15.0106L4.32825 19.4947L6.68565 12.2394L0.513906 7.75532H8.1426L10.5 0.5Z" fill="#FFDF6D"/>
<path d="M34.5 0.5L36.8574 7.75532H44.4861L38.3143 12.2394L40.6717 19.4947L34.5 15.0106L28.3283 19.4947L30.6857 12.2394L24.5139 7.75532H32.1426L34.5 0.5Z" fill="#FFDF6D"/>
<path d="M58.5 0.5L60.8574 7.75532H68.4861L62.3143 12.2394L64.6717 19.4947L58.5 15.0106L52.3283 19.4947L54.6857 12.2394L48.5139 7.75532H56.1426L58.5 0.5Z" fill="#FFDF6D"/>
<path d="M82.5 0.5L84.8574 7.75532H92.4861L86.3143 12.2394L88.6717 19.4947L82.5 15.0106L76.3283 19.4947L78.6857 12.2394L72.5139 7.75532H80.1426L82.5 0.5Z" fill="#FFDF6D"/>
<path d="M106.5 0.5L108.857 7.75532H116.486L110.314 12.2394L112.672 19.4947L106.5 15.0106L100.328 19.4947L102.686 12.2394L96.5139 7.75532H104.143L106.5 0.5Z" fill="#D9D9D9"/>
</svg>
