<svg width="31" height="32" viewBox="0 0 31 32" fill="none" xmlns="http://www.w3.org/2000/svg">
<path d="M11.7938 23.1286C8.661 23.1286 6.00697 22.0402 3.83169 19.8632C1.65614 17.6863 0.568359 15.0516 0.568359 11.9591C0.568359 8.86628 1.65683 6.23142 3.83378 4.05448C6.01072 1.87753 8.65017 0.789062 11.7521 0.789062C14.8541 0.789062 17.4888 1.87753 19.6563 4.05448C21.8241 6.23142 22.9079 8.86767 22.9079 11.9632C22.9079 13.1955 22.7266 14.3507 22.3638 15.4291C22.001 16.5074 21.4754 17.4991 20.7871 18.4041L30.4634 28.0324C30.8209 28.3974 30.9996 28.8374 30.9996 29.3524C30.9996 29.8671 30.8182 30.3032 30.4554 30.6607C30.0924 31.0285 29.651 31.2124 29.1313 31.2124C28.6113 31.2124 28.1767 31.0285 27.8275 30.6607L18.1867 21.0357C17.3692 21.6863 16.4138 22.1977 15.3204 22.5699C14.2271 22.9424 13.0516 23.1286 11.7938 23.1286ZM11.7713 19.4557C13.8568 19.4557 15.6222 18.7261 17.0675 17.267C18.5125 15.8075 19.235 14.0382 19.235 11.9591C19.235 9.87962 18.5117 8.11031 17.065 6.65115C15.6184 5.1917 13.8538 4.46198 11.7713 4.46198C9.6735 4.46198 7.89405 5.1917 6.43294 6.65115C4.97183 8.11031 4.24128 9.87962 4.24128 11.9591C4.24128 14.0382 4.971 15.8075 6.43044 17.267C7.89017 18.7261 9.67044 19.4557 11.7713 19.4557Z" fill="#1C1B1F"/>
</svg>
